<svg width="113" height="127" viewBox="0 0 113 127" fill="none" xmlns="http://www.w3.org/2000/svg">
<path d="M56.5 0C45.3254 0 34.4017 3.72421 25.1103 10.7017C15.8189 17.6791 8.57718 27.5965 4.30083 39.1996C0.0244806 50.8027 -1.09441 63.5704 1.08566 75.8882C3.26572 88.206 8.64682 99.5206 16.5485 108.401C24.4502 117.282 34.5175 123.33 45.4774 125.78C56.4373 128.23 67.7976 126.972 78.1216 122.166C88.4456 117.36 97.2697 109.221 103.478 98.7787C109.686 88.3362 113 76.0591 113 63.5C112.984 46.6642 107.026 30.5231 96.4341 18.6184C85.8417 6.71365 71.4799 0.0177789 56.5 0ZM60.8462 117.005V78.1538H73.8846C75.0373 78.1538 76.1428 77.6392 76.9578 76.7232C77.7729 75.8071 78.2308 74.5647 78.2308 73.2692C78.2308 71.9737 77.7729 70.7313 76.9578 69.8153C76.1428 68.8992 75.0373 68.3846 73.8846 68.3846H60.8462V53.7308C60.8462 51.1398 61.762 48.655 63.3921 46.8229C65.0222 44.9908 67.2331 43.9615 69.5385 43.9615H78.2308C79.3834 43.9615 80.4889 43.4469 81.304 42.5309C82.119 41.6148 82.5769 40.3724 82.5769 39.0769C82.5769 37.7814 82.119 36.539 81.304 35.623C80.4889 34.7069 79.3834 34.1923 78.2308 34.1923H69.5385C64.9278 34.1923 60.5059 36.2508 57.2457 39.915C53.9855 43.5792 52.1539 48.5488 52.1539 53.7308V68.3846H39.1154C37.9627 68.3846 36.8573 68.8992 36.0422 69.8153C35.2271 70.7313 34.7692 71.9737 34.7692 73.2692C34.7692 74.5647 35.2271 75.8071 36.0422 76.7232C36.8573 77.6392 37.9627 78.1538 39.1154 78.1538H52.1539V117.005C39.902 115.748 28.553 109.231 20.4674 98.8094C12.3817 88.388 8.18205 74.8644 8.74185 61.0517C9.30164 47.239 14.5778 34.2006 23.4729 24.6484C32.368 15.0963 44.1972 9.76581 56.5 9.76581C68.8028 9.76581 80.632 15.0963 89.5271 24.6484C98.4222 34.2006 103.698 47.239 104.258 61.0517C104.818 74.8644 100.618 88.388 92.5327 98.8094C84.4471 109.231 73.098 115.748 60.8462 117.005Z" fill="black"/>
</svg>
