<svg width="259" height="265" viewBox="0 0 259 265" fill="none" xmlns="http://www.w3.org/2000/svg">
<path d="M259 132.876C259 205.778 201.021 264.876 129.5 264.876C57.9791 264.876 0 205.778 0 132.876C0 59.9744 57.9791 0.875977 129.5 0.875977C201.021 0.875977 259 59.9744 259 132.876Z" fill="#D9D9D9"/>
<path d="M131.5 103.923C126.799 103.923 122.203 105.628 118.295 108.823C114.386 112.018 111.339 116.56 109.54 121.873C107.741 127.186 107.27 133.032 108.187 138.673C109.105 144.313 111.368 149.494 114.693 153.56C118.017 157.627 122.252 160.396 126.863 161.518C131.474 162.64 136.253 162.064 140.596 159.864C144.939 157.663 148.652 153.936 151.263 149.154C153.875 144.373 155.269 138.751 155.269 133C155.263 125.291 152.756 117.9 148.3 112.448C143.844 106.997 137.802 103.931 131.5 103.923ZM131.5 152.385C128.366 152.385 125.302 151.248 122.696 149.118C120.09 146.988 118.059 143.96 116.86 140.418C115.661 136.876 115.347 132.978 115.958 129.218C116.57 125.458 118.079 122.004 120.295 119.293C122.511 116.582 125.335 114.736 128.409 113.988C131.482 113.24 134.669 113.624 137.564 115.091C140.46 116.558 142.934 119.043 144.676 122.23C146.417 125.418 147.346 129.166 147.346 133C147.346 138.141 145.677 143.072 142.705 146.707C139.733 150.342 135.703 152.385 131.5 152.385ZM155.269 70H107.731C100.379 70.0096 93.3297 73.5867 88.1308 79.9465C82.932 86.3062 80.0079 94.9291 80 103.923V162.077C80.0079 171.071 82.932 179.694 88.1308 186.054C93.3297 192.413 100.379 195.99 107.731 196H155.269C162.621 195.99 169.67 192.413 174.869 186.054C180.068 179.694 182.992 171.071 183 162.077V103.923C182.992 94.9291 180.068 86.3062 174.869 79.9465C169.67 73.5867 162.621 70.0096 155.269 70ZM175.077 162.077C175.077 168.503 172.99 174.667 169.275 179.211C165.561 183.755 160.523 186.308 155.269 186.308H107.731C102.477 186.308 97.4393 183.755 93.7246 179.211C90.01 174.667 87.9231 168.503 87.9231 162.077V103.923C87.9231 97.4967 90.01 91.3335 93.7246 86.7893C97.4393 82.2452 102.477 79.6923 107.731 79.6923H155.269C160.523 79.6923 165.561 82.2452 169.275 86.7893C172.99 91.3335 175.077 97.4967 175.077 103.923V162.077ZM163.192 101.5C163.192 102.938 162.844 104.343 162.191 105.539C161.538 106.734 160.61 107.666 159.524 108.216C158.438 108.766 157.243 108.91 156.091 108.63C154.938 108.349 153.879 107.657 153.048 106.64C152.217 105.624 151.651 104.328 151.422 102.918C151.193 101.508 151.31 100.046 151.76 98.7182C152.21 97.3899 152.971 96.2546 153.949 95.4559C154.926 94.6571 156.075 94.2308 157.25 94.2308C158.826 94.2308 160.337 94.9966 161.452 96.3599C162.566 97.7231 163.192 99.5721 163.192 101.5Z" fill="black"/>
</svg>
