<svg width="135" height="138" viewBox="0 0 135 138" fill="none" xmlns="http://www.w3.org/2000/svg">
<path d="M106.195 80.1727L85.4234 69.5573C84.6058 69.1409 83.6952 68.9522 82.7834 69.0105C81.8717 69.0687 80.9911 69.3718 80.2306 69.889L70.6953 76.391C66.3181 73.9314 62.716 70.2496 60.3097 65.7756L66.6709 56.0293C67.177 55.252 67.4734 54.3519 67.5304 53.42C67.5874 52.4881 67.4029 51.5573 66.9954 50.7216L56.6098 29.4909C56.1794 28.6023 55.514 27.8547 54.6891 27.3329C53.8642 26.8111 52.9129 26.5359 51.9428 26.5385C45.0567 26.5385 38.4527 29.3345 33.5835 34.3114C28.7143 39.2883 25.9788 46.0385 25.9788 53.0769C25.9959 68.5561 32.0195 83.3963 42.7281 94.3417C53.4366 105.287 67.9555 111.444 83.0996 111.462C86.5093 111.462 89.8855 110.775 93.0356 109.441C96.1857 108.108 99.048 106.153 101.459 103.689C103.87 101.224 105.782 98.2987 107.087 95.0789C108.392 91.8591 109.064 88.4082 109.064 84.9231C109.064 83.937 108.796 82.9703 108.29 82.1312C107.783 81.2921 107.057 80.614 106.195 80.1727ZM83.0996 100.846C70.7089 100.832 58.8296 95.7948 50.068 86.8394C41.3064 77.8839 36.3781 65.7418 36.3644 53.0769C36.3634 49.3955 37.6104 45.8275 39.8933 42.98C42.1762 40.1325 45.3538 38.1815 48.8855 37.459L56.3372 52.7187L49.9955 62.3654C49.5216 63.092 49.2304 63.9268 49.1478 64.796C49.0651 65.6651 49.1935 66.5417 49.5216 67.348C53.237 76.3736 60.2618 83.5538 69.092 87.3513C69.8832 87.7016 70.7473 87.845 71.6063 87.7686C72.4653 87.6921 73.2921 87.3982 74.0122 86.9135L83.4956 80.4513L98.4249 88.0679C97.7126 91.6819 95.7954 94.9313 93.0006 97.2616C90.2058 99.592 86.7064 100.859 83.0996 100.846ZM67.5212 1.64323e-06C55.8664 -0.00259786 44.4094 3.07905 34.2655 8.94498C24.1216 14.8109 15.6363 23.2613 9.63552 33.4736C3.63475 43.6859 0.322938 55.3123 0.0224455 67.221C-0.278047 79.1297 2.44302 90.9151 7.92078 101.43L0.553488 124.021C-0.056766 125.891 -0.145328 127.898 0.297729 129.817C0.740785 131.736 1.69795 133.491 3.06195 134.885C4.42594 136.28 6.14286 137.258 8.02027 137.711C9.89768 138.164 11.8614 138.073 13.6913 137.449L35.7932 129.919C44.8466 134.841 54.8781 137.59 65.1262 137.958C75.3743 138.325 85.5697 136.301 94.9384 132.04C104.307 127.779 112.603 121.392 119.196 113.365C125.789 105.337 130.507 95.8801 132.99 85.7108C135.474 75.5416 135.658 64.9277 133.529 54.6748C131.4 44.4219 127.014 34.7995 120.704 26.5379C114.393 18.2764 106.324 11.5928 97.1092 6.99457C87.8943 2.39635 77.7756 0.00430076 67.5212 1.64323e-06ZM67.5212 127.385C57.4795 127.392 47.6139 124.689 38.9218 119.549C38.2854 119.172 37.5779 118.937 36.846 118.861C36.1142 118.784 35.3747 118.867 34.6767 119.105L10.4003 127.385L18.4946 102.571C18.728 101.858 18.8104 101.103 18.7366 100.355C18.6627 99.6066 18.4342 98.8831 18.0662 98.2321C11.7698 87.1053 9.24176 74.1656 10.8744 61.4204C12.507 48.6751 18.209 36.8368 27.0958 27.7419C35.9826 18.647 47.5574 12.8039 60.0247 11.1191C72.492 9.43426 85.1548 12.0019 96.0487 18.4236C106.943 24.8453 115.459 34.7621 120.276 46.6357C125.093 58.5093 125.942 71.6759 122.691 84.093C119.44 96.5101 112.271 107.484 102.296 115.311C92.3206 123.139 80.097 127.382 67.5212 127.385Z" fill="black"/>
</svg>
