<svg width="331" height="50" viewBox="0 0 331 50" fill="none" xmlns="http://www.w3.org/2000/svg">
<rect width="331" height="50" fill="#D9D9D9"/>
<path d="M90.9932 20.981L87.7061 31H85.0581L89.5488 18.9141H91.2339L90.9932 20.981ZM93.7241 31L90.4287 20.981L90.1631 18.9141H91.8647L96.3804 31H93.7241ZM93.5747 26.501V28.4517H87.1914V26.501H93.5747ZM103.038 22.0186H105.204V30.7012C105.204 31.5202 105.021 32.2147 104.656 32.7847C104.297 33.3602 103.793 33.7946 103.146 34.0879C102.498 34.3867 101.745 34.5361 100.888 34.5361C100.511 34.5361 100.113 34.4863 99.6924 34.3867C99.2773 34.2871 98.8789 34.1322 98.4971 33.9219C98.1208 33.7116 97.8053 33.446 97.5508 33.125L98.605 31.7139C98.8817 32.0348 99.2026 32.2839 99.5679 32.4609C99.9331 32.6436 100.337 32.7349 100.78 32.7349C101.211 32.7349 101.577 32.6546 101.875 32.4941C102.174 32.3392 102.404 32.1095 102.564 31.8052C102.725 31.5063 102.805 31.1439 102.805 30.7178V24.0938L103.038 22.0186ZM96.9946 26.6172V26.4429C96.9946 25.7567 97.0776 25.1341 97.2437 24.5752C97.4152 24.0107 97.6559 23.5265 97.9658 23.1226C98.2812 22.7186 98.6631 22.4059 99.1113 22.1846C99.5596 21.9632 100.066 21.8525 100.63 21.8525C101.228 21.8525 101.729 21.9632 102.133 22.1846C102.537 22.4059 102.869 22.7214 103.129 23.1309C103.389 23.5348 103.591 24.0135 103.735 24.5669C103.884 25.1147 104 25.7152 104.083 26.3682V26.75C104 27.3753 103.876 27.9564 103.71 28.4932C103.544 29.0299 103.325 29.5003 103.054 29.9043C102.783 30.3027 102.445 30.6126 102.042 30.834C101.643 31.0553 101.167 31.166 100.614 31.166C100.06 31.166 99.5596 31.0526 99.1113 30.8257C98.6686 30.5988 98.2896 30.2806 97.9741 29.8711C97.6587 29.4616 97.4152 28.9801 97.2437 28.4268C97.0776 27.8734 96.9946 27.2702 96.9946 26.6172ZM99.3853 26.4429V26.6172C99.3853 26.988 99.4212 27.3338 99.4932 27.6548C99.5651 27.9757 99.6758 28.2607 99.8252 28.5098C99.9801 28.7533 100.171 28.9442 100.398 29.0825C100.63 29.2153 100.904 29.2817 101.22 29.2817C101.657 29.2817 102.014 29.1904 102.291 29.0078C102.567 28.8197 102.775 28.5623 102.913 28.2358C103.051 27.9093 103.132 27.533 103.154 27.1069V26.0195C103.143 25.6709 103.096 25.3582 103.013 25.0815C102.93 24.7993 102.813 24.5586 102.664 24.3594C102.515 24.1602 102.321 24.0052 102.083 23.8945C101.845 23.7839 101.563 23.7285 101.236 23.7285C100.921 23.7285 100.647 23.8005 100.415 23.9443C100.188 24.0827 99.9967 24.2736 99.8418 24.5171C99.6924 24.7606 99.5789 25.0483 99.5015 25.3804C99.424 25.7069 99.3853 26.061 99.3853 26.4429ZM111.197 31.166C110.5 31.166 109.875 31.0553 109.321 30.834C108.768 30.6071 108.298 30.2944 107.91 29.896C107.528 29.4976 107.235 29.0355 107.03 28.5098C106.826 27.9785 106.723 27.4141 106.723 26.8164V26.4844C106.723 25.8037 106.82 25.1812 107.014 24.6167C107.207 24.0522 107.484 23.5625 107.844 23.1475C108.209 22.7324 108.652 22.4142 109.172 22.1929C109.692 21.966 110.279 21.8525 110.932 21.8525C111.568 21.8525 112.132 21.9577 112.625 22.168C113.118 22.3783 113.53 22.6771 113.862 23.0645C114.199 23.4518 114.454 23.9167 114.625 24.459C114.797 24.9958 114.883 25.5934 114.883 26.252V27.248H107.744V25.6543H112.534V25.4717C112.534 25.1396 112.473 24.8436 112.351 24.5835C112.235 24.3179 112.058 24.1076 111.82 23.9526C111.582 23.7977 111.278 23.7202 110.907 23.7202C110.591 23.7202 110.32 23.7894 110.093 23.9277C109.866 24.0661 109.681 24.2598 109.537 24.5088C109.399 24.7578 109.294 25.0511 109.222 25.3887C109.155 25.7207 109.122 26.0859 109.122 26.4844V26.8164C109.122 27.1761 109.172 27.5081 109.271 27.8125C109.377 28.1169 109.523 28.3797 109.711 28.6011C109.905 28.8224 110.138 28.994 110.409 29.1157C110.685 29.2375 110.998 29.2983 111.347 29.2983C111.778 29.2983 112.18 29.2153 112.55 29.0493C112.927 28.8778 113.25 28.6204 113.521 28.2773L114.684 29.5391C114.495 29.8102 114.238 30.0703 113.912 30.3193C113.591 30.5684 113.203 30.7731 112.75 30.9336C112.296 31.0885 111.778 31.166 111.197 31.166ZM118.585 23.936V31H116.194V22.0186H118.436L118.585 23.936ZM118.236 26.1938H117.589C117.589 25.5298 117.675 24.9321 117.846 24.4009C118.018 23.8641 118.258 23.4076 118.568 23.0312C118.878 22.6494 119.246 22.3589 119.672 22.1597C120.104 21.9549 120.585 21.8525 121.117 21.8525C121.537 21.8525 121.922 21.9134 122.271 22.0352C122.619 22.1569 122.918 22.3506 123.167 22.6162C123.422 22.8818 123.615 23.2332 123.748 23.6704C123.886 24.1076 123.956 24.6416 123.956 25.2725V31H121.548V25.2642C121.548 24.8657 121.493 24.5558 121.382 24.3345C121.272 24.1131 121.108 23.9582 120.893 23.8696C120.682 23.7756 120.422 23.7285 120.112 23.7285C119.791 23.7285 119.512 23.7922 119.274 23.9194C119.042 24.0467 118.848 24.2238 118.693 24.4507C118.543 24.672 118.43 24.9321 118.353 25.231C118.275 25.5298 118.236 25.8507 118.236 26.1938ZM131.078 29.041V18.25H133.485V31H131.318L131.078 29.041ZM125.4 26.6172V26.4429C125.4 25.7567 125.477 25.1341 125.632 24.5752C125.787 24.0107 126.014 23.5265 126.313 23.1226C126.612 22.7186 126.98 22.4059 127.417 22.1846C127.854 21.9632 128.352 21.8525 128.911 21.8525C129.437 21.8525 129.896 21.9632 130.289 22.1846C130.688 22.4059 131.025 22.7214 131.302 23.1309C131.584 23.5348 131.811 24.0135 131.982 24.5669C132.154 25.1147 132.278 25.7152 132.356 26.3682V26.75C132.278 27.3753 132.154 27.9564 131.982 28.4932C131.811 29.0299 131.584 29.5003 131.302 29.9043C131.025 30.3027 130.688 30.6126 130.289 30.834C129.891 31.0553 129.426 31.166 128.895 31.166C128.336 31.166 127.838 31.0526 127.4 30.8257C126.969 30.5988 126.604 30.2806 126.305 29.8711C126.011 29.4616 125.787 28.9801 125.632 28.4268C125.477 27.8734 125.4 27.2702 125.4 26.6172ZM127.791 26.4429V26.6172C127.791 26.988 127.818 27.3338 127.874 27.6548C127.934 27.9757 128.031 28.2607 128.164 28.5098C128.302 28.7533 128.479 28.9442 128.695 29.0825C128.917 29.2153 129.185 29.2817 129.5 29.2817C129.91 29.2817 130.248 29.1904 130.513 29.0078C130.779 28.8197 130.981 28.5623 131.119 28.2358C131.263 27.9093 131.346 27.533 131.368 27.1069V26.0195C131.352 25.6709 131.302 25.3582 131.219 25.0815C131.141 24.7993 131.025 24.5586 130.87 24.3594C130.721 24.1602 130.533 24.0052 130.306 23.8945C130.084 23.7839 129.821 23.7285 129.517 23.7285C129.207 23.7285 128.942 23.8005 128.72 23.9443C128.499 24.0827 128.319 24.2736 128.181 24.5171C128.048 24.7606 127.948 25.0483 127.882 25.3804C127.821 25.7069 127.791 26.061 127.791 26.4429ZM139.486 31.166C138.789 31.166 138.164 31.0553 137.61 30.834C137.057 30.6071 136.587 30.2944 136.199 29.896C135.817 29.4976 135.524 29.0355 135.319 28.5098C135.115 27.9785 135.012 27.4141 135.012 26.8164V26.4844C135.012 25.8037 135.109 25.1812 135.303 24.6167C135.496 24.0522 135.773 23.5625 136.133 23.1475C136.498 22.7324 136.941 22.4142 137.461 22.1929C137.981 21.966 138.568 21.8525 139.221 21.8525C139.857 21.8525 140.422 21.9577 140.914 22.168C141.407 22.3783 141.819 22.6771 142.151 23.0645C142.488 23.4518 142.743 23.9167 142.915 24.459C143.086 24.9958 143.172 25.5934 143.172 26.252V27.248H136.033V25.6543H140.823V25.4717C140.823 25.1396 140.762 24.8436 140.64 24.5835C140.524 24.3179 140.347 24.1076 140.109 23.9526C139.871 23.7977 139.567 23.7202 139.196 23.7202C138.88 23.7202 138.609 23.7894 138.382 23.9277C138.155 24.0661 137.97 24.2598 137.826 24.5088C137.688 24.7578 137.583 25.0511 137.511 25.3887C137.444 25.7207 137.411 26.0859 137.411 26.4844V26.8164C137.411 27.1761 137.461 27.5081 137.561 27.8125C137.666 28.1169 137.812 28.3797 138 28.6011C138.194 28.8224 138.427 28.994 138.698 29.1157C138.974 29.2375 139.287 29.2983 139.636 29.2983C140.067 29.2983 140.469 29.2153 140.839 29.0493C141.216 28.8778 141.539 28.6204 141.811 28.2773L142.973 29.5391C142.785 29.8102 142.527 30.0703 142.201 30.3193C141.88 30.5684 141.492 30.7731 141.039 30.9336C140.585 31.0885 140.067 31.166 139.486 31.166ZM153.623 28.5181C153.623 28.3465 153.573 28.1916 153.473 28.0532C153.374 27.9149 153.188 27.7876 152.917 27.6714C152.651 27.5496 152.267 27.439 151.763 27.3394C151.309 27.2397 150.886 27.1152 150.493 26.9658C150.106 26.8109 149.768 26.6255 149.48 26.4097C149.198 26.1938 148.977 25.9393 148.816 25.646C148.656 25.3472 148.576 25.0068 148.576 24.625C148.576 24.2487 148.656 23.8945 148.816 23.5625C148.982 23.2305 149.218 22.9372 149.522 22.6826C149.832 22.4225 150.208 22.2205 150.651 22.0767C151.099 21.9272 151.603 21.8525 152.162 21.8525C152.942 21.8525 153.611 21.9771 154.17 22.2261C154.735 22.4751 155.167 22.8182 155.465 23.2554C155.77 23.687 155.922 24.1795 155.922 24.7329H153.531C153.531 24.5005 153.481 24.293 153.382 24.1104C153.288 23.9222 153.138 23.7756 152.934 23.6704C152.734 23.5597 152.474 23.5044 152.153 23.5044C151.888 23.5044 151.658 23.5514 151.464 23.6455C151.271 23.734 151.121 23.8558 151.016 24.0107C150.917 24.1602 150.867 24.3262 150.867 24.5088C150.867 24.6471 150.894 24.7716 150.95 24.8823C151.011 24.9875 151.107 25.0843 151.24 25.1729C151.373 25.2614 151.545 25.3444 151.755 25.4219C151.971 25.4938 152.236 25.5602 152.552 25.6211C153.199 25.7539 153.778 25.9282 154.287 26.144C154.796 26.3543 155.2 26.6421 155.499 27.0073C155.797 27.367 155.947 27.8402 155.947 28.4268C155.947 28.8252 155.858 29.1904 155.681 29.5225C155.504 29.8545 155.25 30.145 154.917 30.394C154.585 30.6375 154.187 30.8285 153.722 30.9668C153.263 31.0996 152.745 31.166 152.17 31.166C151.334 31.166 150.626 31.0166 150.045 30.7178C149.469 30.4189 149.032 30.0399 148.733 29.5806C148.44 29.1157 148.293 28.6398 148.293 28.1528H150.56C150.571 28.4793 150.654 28.7422 150.809 28.9414C150.969 29.1406 151.171 29.2845 151.415 29.373C151.664 29.4616 151.932 29.5059 152.22 29.5059C152.53 29.5059 152.787 29.4644 152.992 29.3813C153.196 29.2928 153.351 29.1766 153.457 29.0327C153.567 28.8833 153.623 28.7118 153.623 28.5181ZM162.812 28.8501V22.0186H165.202V31H162.953L162.812 28.8501ZM163.077 27.0073L163.783 26.9907C163.783 27.5884 163.714 28.1445 163.575 28.6592C163.437 29.1683 163.229 29.611 162.953 29.9873C162.676 30.3581 162.327 30.6486 161.907 30.8589C161.486 31.0636 160.991 31.166 160.421 31.166C159.984 31.166 159.58 31.1051 159.209 30.9834C158.844 30.8561 158.528 30.6597 158.263 30.394C158.003 30.1229 157.798 29.777 157.648 29.3564C157.505 28.9303 157.433 28.4185 157.433 27.8208V22.0186H159.823V27.8374C159.823 28.103 159.854 28.3271 159.915 28.5098C159.981 28.6924 160.072 28.8418 160.188 28.958C160.305 29.0742 160.44 29.1572 160.595 29.207C160.756 29.2568 160.933 29.2817 161.126 29.2817C161.619 29.2817 162.006 29.1821 162.289 28.9829C162.576 28.7837 162.778 28.5125 162.895 28.1694C163.016 27.8208 163.077 27.4334 163.077 27.0073ZM171.876 28.9746V24.9736C171.876 24.6859 171.829 24.4396 171.735 24.2349C171.641 24.0246 171.494 23.8613 171.295 23.7451C171.101 23.6289 170.849 23.5708 170.54 23.5708C170.274 23.5708 170.044 23.6178 169.851 23.7119C169.657 23.8005 169.507 23.9305 169.402 24.1021C169.297 24.2681 169.245 24.4645 169.245 24.6914H166.854C166.854 24.3096 166.943 23.9471 167.12 23.604C167.297 23.2609 167.554 22.9593 167.892 22.6992C168.229 22.4336 168.63 22.2261 169.095 22.0767C169.566 21.9272 170.091 21.8525 170.672 21.8525C171.37 21.8525 171.989 21.9688 172.532 22.2012C173.074 22.4336 173.5 22.7822 173.81 23.2471C174.125 23.7119 174.283 24.293 174.283 24.9902V28.8335C174.283 29.326 174.314 29.73 174.375 30.0454C174.435 30.3553 174.524 30.6265 174.64 30.8589V31H172.225C172.108 30.7565 172.02 30.4521 171.959 30.0869C171.904 29.7161 171.876 29.3454 171.876 28.9746ZM172.191 25.5298L172.208 26.8828H170.872C170.556 26.8828 170.282 26.9188 170.05 26.9907C169.817 27.0627 169.626 27.165 169.477 27.2979C169.328 27.4251 169.217 27.5745 169.145 27.7461C169.079 27.9176 169.045 28.1058 169.045 28.3105C169.045 28.5153 169.092 28.7007 169.187 28.8667C169.281 29.0272 169.416 29.1545 169.593 29.2485C169.77 29.3371 169.978 29.3813 170.216 29.3813C170.576 29.3813 170.888 29.3094 171.154 29.1655C171.419 29.0216 171.624 28.8446 171.768 28.6343C171.917 28.424 171.995 28.2248 172 28.0366L172.631 29.0493C172.543 29.2762 172.421 29.5114 172.266 29.7549C172.117 29.9984 171.926 30.228 171.693 30.4438C171.461 30.6541 171.181 30.8285 170.855 30.9668C170.528 31.0996 170.141 31.166 169.693 31.166C169.123 31.166 168.605 31.0526 168.141 30.8257C167.681 30.5933 167.316 30.2751 167.045 29.8711C166.779 29.4616 166.646 28.9967 166.646 28.4766C166.646 28.0062 166.735 27.5884 166.912 27.2231C167.089 26.8579 167.349 26.5508 167.692 26.3018C168.041 26.0472 168.475 25.8563 168.996 25.729C169.516 25.5962 170.119 25.5298 170.805 25.5298H172.191ZM184.07 29.2983C184.363 29.2983 184.623 29.243 184.85 29.1323C185.077 29.0161 185.254 28.8556 185.381 28.6509C185.514 28.4406 185.583 28.1943 185.589 27.9121H187.838C187.833 28.543 187.664 29.1047 187.332 29.5972C187 30.0841 186.555 30.4688 185.996 30.751C185.437 31.0277 184.811 31.166 184.12 31.166C183.422 31.166 182.814 31.0498 182.293 30.8174C181.779 30.585 181.35 30.264 181.007 29.8545C180.664 29.4395 180.406 28.958 180.235 28.4102C180.063 27.8568 179.978 27.2646 179.978 26.6338V26.3931C179.978 25.7567 180.063 25.1646 180.235 24.6167C180.406 24.0633 180.664 23.5819 181.007 23.1724C181.35 22.7573 181.779 22.4336 182.293 22.2012C182.808 21.9688 183.411 21.8525 184.103 21.8525C184.839 21.8525 185.484 21.9937 186.037 22.2759C186.596 22.5581 187.033 22.9621 187.349 23.4878C187.67 24.008 187.833 24.625 187.838 25.3389H185.589C185.583 25.04 185.52 24.7689 185.398 24.5254C185.282 24.2819 185.11 24.0882 184.883 23.9443C184.662 23.7949 184.388 23.7202 184.062 23.7202C183.713 23.7202 183.428 23.7949 183.207 23.9443C182.985 24.0882 182.814 24.2874 182.692 24.542C182.57 24.791 182.484 25.076 182.435 25.397C182.39 25.7124 182.368 26.0444 182.368 26.3931V26.6338C182.368 26.9824 182.39 27.3172 182.435 27.6382C182.479 27.9591 182.562 28.2441 182.684 28.4932C182.811 28.7422 182.985 28.9386 183.207 29.0825C183.428 29.2264 183.716 29.2983 184.07 29.2983ZM188.843 26.6006V26.4263C188.843 25.7677 188.937 25.1618 189.125 24.6084C189.313 24.0495 189.587 23.5653 189.947 23.1558C190.306 22.7463 190.749 22.4281 191.275 22.2012C191.801 21.9688 192.404 21.8525 193.084 21.8525C193.765 21.8525 194.371 21.9688 194.902 22.2012C195.434 22.4281 195.879 22.7463 196.239 23.1558C196.604 23.5653 196.881 24.0495 197.069 24.6084C197.257 25.1618 197.351 25.7677 197.351 26.4263V26.6006C197.351 27.2536 197.257 27.8595 197.069 28.4185C196.881 28.9718 196.604 29.4561 196.239 29.8711C195.879 30.2806 195.436 30.5988 194.911 30.8257C194.385 31.0526 193.782 31.166 193.101 31.166C192.42 31.166 191.814 31.0526 191.283 30.8257C190.757 30.5988 190.312 30.2806 189.947 29.8711C189.587 29.4561 189.313 28.9718 189.125 28.4185C188.937 27.8595 188.843 27.2536 188.843 26.6006ZM191.233 26.4263V26.6006C191.233 26.9769 191.267 27.3283 191.333 27.6548C191.399 27.9813 191.505 28.269 191.648 28.5181C191.798 28.7616 191.992 28.9525 192.229 29.0908C192.467 29.2292 192.758 29.2983 193.101 29.2983C193.433 29.2983 193.718 29.2292 193.956 29.0908C194.194 28.9525 194.385 28.7616 194.529 28.5181C194.673 28.269 194.778 27.9813 194.844 27.6548C194.916 27.3283 194.952 26.9769 194.952 26.6006V26.4263C194.952 26.061 194.916 25.7179 194.844 25.397C194.778 25.0705 194.67 24.7827 194.521 24.5337C194.377 24.2791 194.186 24.0799 193.948 23.936C193.71 23.7922 193.422 23.7202 193.084 23.7202C192.747 23.7202 192.459 23.7922 192.221 23.936C191.989 24.0799 191.798 24.2791 191.648 24.5337C191.505 24.7827 191.399 25.0705 191.333 25.397C191.267 25.7179 191.233 26.061 191.233 26.4263ZM201.161 23.936V31H198.771V22.0186H201.012L201.161 23.936ZM200.812 26.1938H200.165C200.165 25.5298 200.251 24.9321 200.422 24.4009C200.594 23.8641 200.835 23.4076 201.145 23.0312C201.454 22.6494 201.822 22.3589 202.249 22.1597C202.68 21.9549 203.162 21.8525 203.693 21.8525C204.113 21.8525 204.498 21.9134 204.847 22.0352C205.195 22.1569 205.494 22.3506 205.743 22.6162C205.998 22.8818 206.191 23.2332 206.324 23.6704C206.463 24.1076 206.532 24.6416 206.532 25.2725V31H204.125V25.2642C204.125 24.8657 204.069 24.5558 203.958 24.3345C203.848 24.1131 203.685 23.9582 203.469 23.8696C203.258 23.7756 202.998 23.7285 202.688 23.7285C202.368 23.7285 202.088 23.7922 201.85 23.9194C201.618 24.0467 201.424 24.2238 201.269 24.4507C201.12 24.672 201.006 24.9321 200.929 25.231C200.851 25.5298 200.812 25.8507 200.812 26.1938ZM213.206 28.5181C213.206 28.3465 213.156 28.1916 213.056 28.0532C212.957 27.9149 212.771 27.7876 212.5 27.6714C212.234 27.5496 211.85 27.439 211.346 27.3394C210.892 27.2397 210.469 27.1152 210.076 26.9658C209.689 26.8109 209.351 26.6255 209.063 26.4097C208.781 26.1938 208.56 25.9393 208.399 25.646C208.239 25.3472 208.159 25.0068 208.159 24.625C208.159 24.2487 208.239 23.8945 208.399 23.5625C208.565 23.2305 208.801 22.9372 209.105 22.6826C209.415 22.4225 209.791 22.2205 210.234 22.0767C210.682 21.9272 211.186 21.8525 211.745 21.8525C212.525 21.8525 213.194 21.9771 213.753 22.2261C214.318 22.4751 214.75 22.8182 215.048 23.2554C215.353 23.687 215.505 24.1795 215.505 24.7329H213.114C213.114 24.5005 213.064 24.293 212.965 24.1104C212.871 23.9222 212.721 23.7756 212.517 23.6704C212.317 23.5597 212.057 23.5044 211.736 23.5044C211.471 23.5044 211.241 23.5514 211.047 23.6455C210.854 23.734 210.704 23.8558 210.599 24.0107C210.5 24.1602 210.45 24.3262 210.45 24.5088C210.45 24.6471 210.477 24.7716 210.533 24.8823C210.594 24.9875 210.69 25.0843 210.823 25.1729C210.956 25.2614 211.128 25.3444 211.338 25.4219C211.554 25.4938 211.819 25.5602 212.135 25.6211C212.782 25.7539 213.361 25.9282 213.87 26.144C214.379 26.3543 214.783 26.6421 215.082 27.0073C215.38 27.367 215.53 27.8402 215.53 28.4268C215.53 28.8252 215.441 29.1904 215.264 29.5225C215.087 29.8545 214.833 30.145 214.5 30.394C214.168 30.6375 213.77 30.8285 213.305 30.9668C212.846 31.0996 212.328 31.166 211.753 31.166C210.917 31.166 210.209 31.0166 209.628 30.7178C209.052 30.4189 208.615 30.0399 208.316 29.5806C208.023 29.1157 207.876 28.6398 207.876 28.1528H210.143C210.154 28.4793 210.237 28.7422 210.392 28.9414C210.552 29.1406 210.754 29.2845 210.998 29.373C211.247 29.4616 211.515 29.5059 211.803 29.5059C212.113 29.5059 212.37 29.4644 212.575 29.3813C212.779 29.2928 212.934 29.1766 213.04 29.0327C213.15 28.8833 213.206 28.7118 213.206 28.5181ZM222.395 28.8501V22.0186H224.785V31H222.536L222.395 28.8501ZM222.66 27.0073L223.366 26.9907C223.366 27.5884 223.297 28.1445 223.158 28.6592C223.02 29.1683 222.812 29.611 222.536 29.9873C222.259 30.3581 221.91 30.6486 221.49 30.8589C221.069 31.0636 220.574 31.166 220.004 31.166C219.567 31.166 219.163 31.1051 218.792 30.9834C218.427 30.8561 218.111 30.6597 217.846 30.394C217.586 30.1229 217.381 29.777 217.231 29.3564C217.088 28.9303 217.016 28.4185 217.016 27.8208V22.0186H219.406V27.8374C219.406 28.103 219.437 28.3271 219.498 28.5098C219.564 28.6924 219.655 28.8418 219.771 28.958C219.888 29.0742 220.023 29.1572 220.178 29.207C220.339 29.2568 220.516 29.2817 220.709 29.2817C221.202 29.2817 221.589 29.1821 221.872 28.9829C222.159 28.7837 222.361 28.5125 222.478 28.1694C222.599 27.8208 222.66 27.4334 222.66 27.0073ZM229.135 18.25V31H226.736V18.25H229.135ZM235.51 22.0186V23.7119H230.28V22.0186H235.51ZM231.575 19.8022H233.966V28.2939C233.966 28.554 233.999 28.7533 234.065 28.8916C234.137 29.0299 234.243 29.1268 234.381 29.1821C234.519 29.2319 234.694 29.2568 234.904 29.2568C235.053 29.2568 235.186 29.2513 235.302 29.2402C235.424 29.2236 235.526 29.207 235.609 29.1904L235.618 30.9502C235.413 31.0166 235.192 31.0692 234.954 31.1079C234.716 31.1466 234.453 31.166 234.165 31.166C233.639 31.166 233.18 31.0802 232.787 30.9087C232.4 30.7316 232.101 30.4494 231.891 30.062C231.68 29.6746 231.575 29.1655 231.575 28.5347V19.8022ZM241.719 28.9746V24.9736C241.719 24.6859 241.672 24.4396 241.578 24.2349C241.484 24.0246 241.337 23.8613 241.138 23.7451C240.944 23.6289 240.692 23.5708 240.382 23.5708C240.117 23.5708 239.887 23.6178 239.693 23.7119C239.5 23.8005 239.35 23.9305 239.245 24.1021C239.14 24.2681 239.087 24.4645 239.087 24.6914H236.697C236.697 24.3096 236.785 23.9471 236.962 23.604C237.139 23.2609 237.397 22.9593 237.734 22.6992C238.072 22.4336 238.473 22.2261 238.938 22.0767C239.408 21.9272 239.934 21.8525 240.515 21.8525C241.212 21.8525 241.832 21.9688 242.375 22.2012C242.917 22.4336 243.343 22.7822 243.653 23.2471C243.968 23.7119 244.126 24.293 244.126 24.9902V28.8335C244.126 29.326 244.156 29.73 244.217 30.0454C244.278 30.3553 244.367 30.6265 244.483 30.8589V31H242.067C241.951 30.7565 241.863 30.4521 241.802 30.0869C241.746 29.7161 241.719 29.3454 241.719 28.9746ZM242.034 25.5298L242.051 26.8828H240.714C240.399 26.8828 240.125 26.9188 239.893 26.9907C239.66 27.0627 239.469 27.165 239.32 27.2979C239.17 27.4251 239.06 27.5745 238.988 27.7461C238.921 27.9176 238.888 28.1058 238.888 28.3105C238.888 28.5153 238.935 28.7007 239.029 28.8667C239.123 29.0272 239.259 29.1545 239.436 29.2485C239.613 29.3371 239.821 29.3813 240.059 29.3813C240.418 29.3813 240.731 29.3094 240.997 29.1655C241.262 29.0216 241.467 28.8446 241.611 28.6343C241.76 28.424 241.838 28.2248 241.843 28.0366L242.474 29.0493C242.386 29.2762 242.264 29.5114 242.109 29.7549C241.959 29.9984 241.769 30.228 241.536 30.4438C241.304 30.6541 241.024 30.8285 240.698 30.9668C240.371 31.0996 239.984 31.166 239.536 31.166C238.966 31.166 238.448 31.0526 237.983 30.8257C237.524 30.5933 237.159 30.2751 236.888 29.8711C236.622 29.4616 236.489 28.9967 236.489 28.4766C236.489 28.0062 236.578 27.5884 236.755 27.2231C236.932 26.8579 237.192 26.5508 237.535 26.3018C237.884 26.0472 238.318 25.8563 238.838 25.729C239.359 25.5962 239.962 25.5298 240.648 25.5298H242.034Z" fill="black"/>
</svg>
