<svg width="677" height="61" viewBox="0 0 677 61" fill="none" xmlns="http://www.w3.org/2000/svg">
<rect width="677" height="61" fill="#D9D9D9"/>
<path d="M243.051 25.2129L239.184 37H236.068L241.352 22.7812H243.334L243.051 25.2129ZM246.264 37L242.387 25.2129L242.074 22.7812H244.076L249.389 37H246.264ZM246.088 31.707V34.002H238.578V31.707H246.088ZM255.854 22.7812V37H252.934V22.7812H255.854ZM260.229 22.7812V25.0762H248.627V22.7812H260.229ZM271.439 34.7148V37H263.871V34.7148H271.439ZM264.828 22.7812V37H261.898V22.7812H264.828ZM270.453 28.5723V30.7988H263.871V28.5723H270.453ZM271.43 22.7812V25.0762H263.871V22.7812H271.43ZM284.721 22.7812V37H281.791L276.078 27.4688V37H273.148V22.7812H276.078L281.801 32.3223V22.7812H284.721ZM291.635 37H288.539L288.559 34.7148H291.635C292.403 34.7148 293.051 34.5423 293.578 34.1973C294.105 33.8457 294.503 33.3346 294.77 32.6641C295.043 31.9935 295.18 31.1829 295.18 30.2324V29.5391C295.18 28.8099 295.102 28.1686 294.945 27.6152C294.796 27.0618 294.571 26.5964 294.271 26.2188C293.972 25.8411 293.604 25.5579 293.168 25.3691C292.732 25.1738 292.23 25.0762 291.664 25.0762H288.48V22.7812H291.664C292.615 22.7812 293.484 22.944 294.271 23.2695C295.066 23.5885 295.753 24.0475 296.332 24.6465C296.911 25.2454 297.357 25.9616 297.67 26.7949C297.989 27.6217 298.148 28.543 298.148 29.5586V30.2324C298.148 31.2415 297.989 32.1628 297.67 32.9961C297.357 33.8294 296.911 34.5456 296.332 35.1445C295.759 35.737 295.072 36.196 294.271 36.5215C293.477 36.8405 292.598 37 291.635 37ZM290.199 22.7812V37H287.27V22.7812H290.199ZM303.393 22.7812V37H300.473V22.7812H303.393ZM307.475 22.7812H309.955L313.607 33.2207L317.26 22.7812H319.74L314.604 37H312.611L307.475 22.7812ZM306.137 22.7812H308.607L309.057 32.957V37H306.137V22.7812ZM318.607 22.7812H321.088V37H318.158V32.957L318.607 22.7812ZM333.197 34.7148V37H325.629V34.7148H333.197ZM326.586 22.7812V37H323.656V22.7812H326.586ZM332.211 28.5723V30.7988H325.629V28.5723H332.211ZM333.188 22.7812V25.0762H325.629V22.7812H333.188ZM346.479 22.7812V37H343.549L337.836 27.4688V37H334.906V22.7812H337.836L343.559 32.3223V22.7812H346.479ZM355.092 22.7812V37H352.172V22.7812H355.092ZM359.467 22.7812V25.0762H347.865V22.7812H359.467ZM372.543 29.5586V30.2324C372.543 31.3132 372.396 32.2832 372.104 33.1426C371.811 34.002 371.397 34.7344 370.863 35.3398C370.329 35.9388 369.691 36.3978 368.949 36.7168C368.214 37.0358 367.396 37.1953 366.498 37.1953C365.606 37.1953 364.789 37.0358 364.047 36.7168C363.311 36.3978 362.673 35.9388 362.133 35.3398C361.592 34.7344 361.173 34.002 360.873 33.1426C360.58 32.2832 360.434 31.3132 360.434 30.2324V29.5586C360.434 28.4714 360.58 27.5013 360.873 26.6484C361.166 25.7891 361.579 25.0566 362.113 24.4512C362.654 23.8457 363.292 23.3835 364.027 23.0645C364.77 22.7454 365.587 22.5859 366.479 22.5859C367.377 22.5859 368.194 22.7454 368.93 23.0645C369.672 23.3835 370.31 23.8457 370.844 24.4512C371.384 25.0566 371.801 25.7891 372.094 26.6484C372.393 27.5013 372.543 28.4714 372.543 29.5586ZM369.584 30.2324V29.5391C369.584 28.7839 369.516 28.1198 369.379 27.5469C369.242 26.974 369.04 26.4922 368.773 26.1016C368.507 25.7109 368.181 25.418 367.797 25.2227C367.413 25.0208 366.973 24.9199 366.479 24.9199C365.984 24.9199 365.544 25.0208 365.16 25.2227C364.783 25.418 364.46 25.7109 364.193 26.1016C363.933 26.4922 363.734 26.974 363.598 27.5469C363.461 28.1198 363.393 28.7839 363.393 29.5391V30.2324C363.393 30.9811 363.461 31.6452 363.598 32.2246C363.734 32.7975 363.936 33.2826 364.203 33.6797C364.47 34.0703 364.796 34.3665 365.18 34.5684C365.564 34.7702 366.003 34.8711 366.498 34.8711C366.993 34.8711 367.432 34.7702 367.816 34.5684C368.201 34.3665 368.523 34.0703 368.783 33.6797C369.044 33.2826 369.242 32.7975 369.379 32.2246C369.516 31.6452 369.584 30.9811 369.584 30.2324ZM391.312 29.5586V30.2324C391.312 31.3132 391.166 32.2832 390.873 33.1426C390.58 34.002 390.167 34.7344 389.633 35.3398C389.099 35.9388 388.461 36.3978 387.719 36.7168C386.983 37.0358 386.166 37.1953 385.268 37.1953C384.376 37.1953 383.559 37.0358 382.816 36.7168C382.081 36.3978 381.443 35.9388 380.902 35.3398C380.362 34.7344 379.942 34.002 379.643 33.1426C379.35 32.2832 379.203 31.3132 379.203 30.2324V29.5586C379.203 28.4714 379.35 27.5013 379.643 26.6484C379.936 25.7891 380.349 25.0566 380.883 24.4512C381.423 23.8457 382.061 23.3835 382.797 23.0645C383.539 22.7454 384.356 22.5859 385.248 22.5859C386.146 22.5859 386.964 22.7454 387.699 23.0645C388.441 23.3835 389.079 23.8457 389.613 24.4512C390.154 25.0566 390.57 25.7891 390.863 26.6484C391.163 27.5013 391.312 28.4714 391.312 29.5586ZM388.354 30.2324V29.5391C388.354 28.7839 388.285 28.1198 388.148 27.5469C388.012 26.974 387.81 26.4922 387.543 26.1016C387.276 25.7109 386.951 25.418 386.566 25.2227C386.182 25.0208 385.743 24.9199 385.248 24.9199C384.753 24.9199 384.314 25.0208 383.93 25.2227C383.552 25.418 383.23 25.7109 382.963 26.1016C382.702 26.4922 382.504 26.974 382.367 27.5469C382.23 28.1198 382.162 28.7839 382.162 29.5391V30.2324C382.162 30.9811 382.23 31.6452 382.367 32.2246C382.504 32.7975 382.706 33.2826 382.973 33.6797C383.24 34.0703 383.565 34.3665 383.949 34.5684C384.333 34.7702 384.773 34.8711 385.268 34.8711C385.762 34.8711 386.202 34.7702 386.586 34.5684C386.97 34.3665 387.292 34.0703 387.553 33.6797C387.813 33.2826 388.012 32.7975 388.148 32.2246C388.285 31.6452 388.354 30.9811 388.354 30.2324ZM404.994 22.7812V37H402.064L396.352 27.4688V37H393.422V22.7812H396.352L402.074 32.3223V22.7812H404.994ZM416.684 34.7148V37H409.525V34.7148H416.684ZM410.473 22.7812V37H407.543V22.7812H410.473ZM421.479 22.7812V37H418.559V22.7812H421.479ZM435.795 22.7812V37H432.865L427.152 27.4688V37H424.223V22.7812H427.152L432.875 32.3223V22.7812H435.795ZM447.885 34.7148V37H440.316V34.7148H447.885ZM441.273 22.7812V37H438.344V22.7812H441.273ZM446.898 28.5723V30.7988H440.316V28.5723H446.898ZM447.875 22.7812V25.0762H440.316V22.7812H447.875Z" fill="black"/>
</svg>
