<svg width="331" height="50" viewBox="0 0 331 50" fill="none" xmlns="http://www.w3.org/2000/svg">
<rect width="331" height="50" fill="#D9D9D9"/>
<path d="M126.216 18.9141H128.325L131.429 27.7876L134.534 18.9141H136.642L132.276 31H130.583L126.216 18.9141ZM125.079 18.9141H127.179L127.561 27.5635V31H125.079V18.9141ZM135.679 18.9141H137.788V31H135.297V27.5635L135.679 18.9141ZM143.955 31.166C143.258 31.166 142.632 31.0553 142.079 30.834C141.526 30.6071 141.055 30.2944 140.668 29.896C140.286 29.4976 139.993 29.0355 139.788 28.5098C139.583 27.9785 139.481 27.4141 139.481 26.8164V26.4844C139.481 25.8037 139.578 25.1812 139.771 24.6167C139.965 24.0522 140.242 23.5625 140.602 23.1475C140.967 22.7324 141.41 22.4142 141.93 22.1929C142.45 21.966 143.036 21.8525 143.689 21.8525C144.326 21.8525 144.89 21.9577 145.383 22.168C145.875 22.3783 146.288 22.6771 146.62 23.0645C146.957 23.4518 147.212 23.9167 147.383 24.459C147.555 24.9958 147.641 25.5934 147.641 26.252V27.248H140.502V25.6543H145.292V25.4717C145.292 25.1396 145.231 24.8436 145.109 24.5835C144.993 24.3179 144.816 24.1076 144.578 23.9526C144.34 23.7977 144.035 23.7202 143.665 23.7202C143.349 23.7202 143.078 23.7894 142.851 23.9277C142.624 24.0661 142.439 24.2598 142.295 24.5088C142.157 24.7578 142.051 25.0511 141.979 25.3887C141.913 25.7207 141.88 26.0859 141.88 26.4844V26.8164C141.88 27.1761 141.93 27.5081 142.029 27.8125C142.134 28.1169 142.281 28.3797 142.469 28.6011C142.663 28.8224 142.895 28.994 143.167 29.1157C143.443 29.2375 143.756 29.2983 144.104 29.2983C144.536 29.2983 144.937 29.2153 145.308 29.0493C145.684 28.8778 146.008 28.6204 146.279 28.2773L147.441 29.5391C147.253 29.8102 146.996 30.0703 146.669 30.3193C146.348 30.5684 145.961 30.7731 145.507 30.9336C145.054 31.0885 144.536 31.166 143.955 31.166ZM142.27 20.7983L143.897 18.2417H146.495L144.212 20.7983H142.27ZM154.306 29.041V18.25H156.713V31H154.547L154.306 29.041ZM148.628 26.6172V26.4429C148.628 25.7567 148.706 25.1341 148.861 24.5752C149.016 24.0107 149.243 23.5265 149.542 23.1226C149.84 22.7186 150.208 22.4059 150.646 22.1846C151.083 21.9632 151.581 21.8525 152.14 21.8525C152.665 21.8525 153.125 21.9632 153.518 22.1846C153.916 22.4059 154.254 22.7214 154.53 23.1309C154.812 23.5348 155.039 24.0135 155.211 24.5669C155.382 25.1147 155.507 25.7152 155.584 26.3682V26.75C155.507 27.3753 155.382 27.9564 155.211 28.4932C155.039 29.0299 154.812 29.5003 154.53 29.9043C154.254 30.3027 153.916 30.6126 153.518 30.834C153.119 31.0553 152.654 31.166 152.123 31.166C151.564 31.166 151.066 31.0526 150.629 30.8257C150.197 30.5988 149.832 30.2806 149.533 29.8711C149.24 29.4616 149.016 28.9801 148.861 28.4268C148.706 27.8734 148.628 27.2702 148.628 26.6172ZM151.019 26.4429V26.6172C151.019 26.988 151.047 27.3338 151.102 27.6548C151.163 27.9757 151.26 28.2607 151.393 28.5098C151.531 28.7533 151.708 28.9442 151.924 29.0825C152.145 29.2153 152.414 29.2817 152.729 29.2817C153.139 29.2817 153.476 29.1904 153.742 29.0078C154.007 28.8197 154.209 28.5623 154.348 28.2358C154.492 27.9093 154.575 27.533 154.597 27.1069V26.0195C154.58 25.6709 154.53 25.3582 154.447 25.0815C154.37 24.7993 154.254 24.5586 154.099 24.3594C153.949 24.1602 153.761 24.0052 153.534 23.8945C153.313 23.7839 153.05 23.7285 152.746 23.7285C152.436 23.7285 152.17 23.8005 151.949 23.9443C151.727 24.0827 151.548 24.2736 151.409 24.5171C151.276 24.7606 151.177 25.0483 151.11 25.3804C151.049 25.7069 151.019 26.061 151.019 26.4429ZM161.104 22.0186V31H158.706V22.0186H161.104ZM158.556 19.6777C158.556 19.3291 158.678 19.0413 158.921 18.8145C159.165 18.5876 159.491 18.4741 159.901 18.4741C160.305 18.4741 160.629 18.5876 160.872 18.8145C161.121 19.0413 161.246 19.3291 161.246 19.6777C161.246 20.0264 161.121 20.3141 160.872 20.541C160.629 20.7679 160.305 20.8813 159.901 20.8813C159.491 20.8813 159.165 20.7679 158.921 20.541C158.678 20.3141 158.556 20.0264 158.556 19.6777ZM166.791 29.2983C167.084 29.2983 167.344 29.243 167.571 29.1323C167.798 29.0161 167.975 28.8556 168.102 28.6509C168.235 28.4406 168.304 28.1943 168.31 27.9121H170.559C170.554 28.543 170.385 29.1047 170.053 29.5972C169.721 30.0841 169.275 30.4688 168.716 30.751C168.157 31.0277 167.532 31.166 166.84 31.166C166.143 31.166 165.534 31.0498 165.014 30.8174C164.5 30.585 164.071 30.264 163.728 29.8545C163.384 29.4395 163.127 28.958 162.956 28.4102C162.784 27.8568 162.698 27.2646 162.698 26.6338V26.3931C162.698 25.7567 162.784 25.1646 162.956 24.6167C163.127 24.0633 163.384 23.5819 163.728 23.1724C164.071 22.7573 164.5 22.4336 165.014 22.2012C165.529 21.9688 166.132 21.8525 166.824 21.8525C167.56 21.8525 168.204 21.9937 168.758 22.2759C169.317 22.5581 169.754 22.9621 170.069 23.4878C170.39 24.008 170.554 24.625 170.559 25.3389H168.31C168.304 25.04 168.24 24.7689 168.119 24.5254C168.002 24.2819 167.831 24.0882 167.604 23.9443C167.383 23.7949 167.109 23.7202 166.782 23.7202C166.434 23.7202 166.149 23.7949 165.927 23.9443C165.706 24.0882 165.534 24.2874 165.413 24.542C165.291 24.791 165.205 25.076 165.155 25.397C165.111 25.7124 165.089 26.0444 165.089 26.3931V26.6338C165.089 26.9824 165.111 27.3172 165.155 27.6382C165.2 27.9591 165.283 28.2441 165.404 28.4932C165.532 28.7422 165.706 28.9386 165.927 29.0825C166.149 29.2264 166.436 29.2983 166.791 29.2983ZM171.563 26.6006V26.4263C171.563 25.7677 171.658 25.1618 171.846 24.6084C172.034 24.0495 172.308 23.5653 172.667 23.1558C173.027 22.7463 173.47 22.4281 173.996 22.2012C174.521 21.9688 175.125 21.8525 175.805 21.8525C176.486 21.8525 177.092 21.9688 177.623 22.2012C178.154 22.4281 178.6 22.7463 178.959 23.1558C179.325 23.5653 179.601 24.0495 179.79 24.6084C179.978 25.1618 180.072 25.7677 180.072 26.4263V26.6006C180.072 27.2536 179.978 27.8595 179.79 28.4185C179.601 28.9718 179.325 29.4561 178.959 29.8711C178.6 30.2806 178.157 30.5988 177.631 30.8257C177.106 31.0526 176.502 31.166 175.822 31.166C175.141 31.166 174.535 31.0526 174.004 30.8257C173.478 30.5988 173.033 30.2806 172.667 29.8711C172.308 29.4561 172.034 28.9718 171.846 28.4185C171.658 27.8595 171.563 27.2536 171.563 26.6006ZM173.954 26.4263V26.6006C173.954 26.9769 173.987 27.3283 174.054 27.6548C174.12 27.9813 174.225 28.269 174.369 28.5181C174.519 28.7616 174.712 28.9525 174.95 29.0908C175.188 29.2292 175.479 29.2983 175.822 29.2983C176.154 29.2983 176.439 29.2292 176.677 29.0908C176.915 28.9525 177.106 28.7616 177.25 28.5181C177.393 28.269 177.499 27.9813 177.565 27.6548C177.637 27.3283 177.673 26.9769 177.673 26.6006V26.4263C177.673 26.061 177.637 25.7179 177.565 25.397C177.499 25.0705 177.391 24.7827 177.241 24.5337C177.097 24.2791 176.906 24.0799 176.668 23.936C176.431 23.7922 176.143 23.7202 175.805 23.7202C175.468 23.7202 175.18 23.7922 174.942 23.936C174.709 24.0799 174.519 24.2791 174.369 24.5337C174.225 24.7827 174.12 25.0705 174.054 25.397C173.987 25.7179 173.954 26.061 173.954 26.4263ZM186.397 28.5181C186.397 28.3465 186.347 28.1916 186.248 28.0532C186.148 27.9149 185.963 27.7876 185.691 27.6714C185.426 27.5496 185.041 27.439 184.538 27.3394C184.084 27.2397 183.66 27.1152 183.268 26.9658C182.88 26.8109 182.543 26.6255 182.255 26.4097C181.973 26.1938 181.751 25.9393 181.591 25.646C181.43 25.3472 181.35 25.0068 181.35 24.625C181.35 24.2487 181.43 23.8945 181.591 23.5625C181.757 23.2305 181.992 22.9372 182.296 22.6826C182.606 22.4225 182.983 22.2205 183.425 22.0767C183.874 21.9272 184.377 21.8525 184.936 21.8525C185.716 21.8525 186.386 21.9771 186.945 22.2261C187.509 22.4751 187.941 22.8182 188.24 23.2554C188.544 23.687 188.696 24.1795 188.696 24.7329H186.306C186.306 24.5005 186.256 24.293 186.156 24.1104C186.062 23.9222 185.913 23.7756 185.708 23.6704C185.509 23.5597 185.249 23.5044 184.928 23.5044C184.662 23.5044 184.432 23.5514 184.239 23.6455C184.045 23.734 183.896 23.8558 183.791 24.0107C183.691 24.1602 183.641 24.3262 183.641 24.5088C183.641 24.6471 183.669 24.7716 183.724 24.8823C183.785 24.9875 183.882 25.0843 184.015 25.1729C184.147 25.2614 184.319 25.3444 184.529 25.4219C184.745 25.4938 185.011 25.5602 185.326 25.6211C185.974 25.7539 186.552 25.9282 187.061 26.144C187.57 26.3543 187.974 26.6421 188.273 27.0073C188.572 27.367 188.721 27.8402 188.721 28.4268C188.721 28.8252 188.633 29.1904 188.456 29.5225C188.278 29.8545 188.024 30.145 187.692 30.394C187.36 30.6375 186.961 30.8285 186.497 30.9668C186.037 31.0996 185.52 31.166 184.944 31.166C184.109 31.166 183.4 31.0166 182.819 30.7178C182.244 30.4189 181.807 30.0399 181.508 29.5806C181.215 29.1157 181.068 28.6398 181.068 28.1528H183.334C183.345 28.4793 183.428 28.7422 183.583 28.9414C183.743 29.1406 183.945 29.2845 184.189 29.373C184.438 29.4616 184.706 29.5059 184.994 29.5059C185.304 29.5059 185.561 29.4644 185.766 29.3813C185.971 29.2928 186.126 29.1766 186.231 29.0327C186.342 28.8833 186.397 28.7118 186.397 28.5181Z" fill="black"/>
</svg>
