<svg width="259" height="264" viewBox="0 0 259 264" fill="none" xmlns="http://www.w3.org/2000/svg">
<ellipse cx="129.5" cy="132" rx="129.5" ry="132" fill="#D9D9D9"/>
<path d="M163.968 135.687L145.197 125.533C144.459 125.135 143.636 124.954 142.812 125.01C141.988 125.066 141.192 125.356 140.505 125.85L131.888 132.07C127.932 129.717 124.677 126.195 122.502 121.916L128.251 112.593C128.708 111.85 128.976 110.989 129.028 110.097C129.079 109.206 128.912 108.316 128.544 107.516L119.159 87.2087C118.769 86.3587 118.168 85.6437 117.423 85.1445C116.677 84.6454 115.818 84.3822 114.941 84.3846C108.718 84.3846 102.75 87.0591 98.3495 91.8196C93.9492 96.5801 91.4771 103.037 91.4771 109.769C91.4926 124.575 96.9362 138.77 106.613 149.24C116.291 159.709 129.412 165.599 143.097 165.615C146.179 165.615 149.23 164.959 152.077 163.683C154.923 162.407 157.51 160.538 159.689 158.18C161.868 155.823 163.596 153.025 164.775 149.945C165.954 146.865 166.561 143.564 166.561 140.231C166.562 139.288 166.32 138.363 165.862 137.56C165.404 136.758 164.748 136.109 163.968 135.687ZM143.097 155.462C131.9 155.448 121.165 150.63 113.247 142.064C105.329 133.498 100.875 121.883 100.863 109.769C100.862 106.248 101.989 102.835 104.052 100.111C106.115 97.3876 108.986 95.5215 112.178 94.8304L118.912 109.427L113.181 118.654C112.753 119.349 112.49 120.147 112.415 120.979C112.34 121.81 112.456 122.649 112.753 123.42C116.11 132.053 122.459 138.921 130.439 142.553C131.154 142.889 131.935 143.026 132.711 142.953C133.487 142.879 134.234 142.598 134.885 142.135L143.455 135.953L156.947 143.239C156.303 146.696 154.571 149.804 152.045 152.033C149.519 154.262 146.357 155.474 143.097 155.462ZM129.019 59C118.487 58.9975 108.133 61.9452 98.9659 67.5561C89.7988 73.167 82.1306 81.2499 76.7077 91.0182C71.2847 100.787 68.2918 111.907 68.0203 123.298C67.7487 134.689 70.2078 145.962 75.158 156.02L68.5002 177.629C67.9487 179.418 67.8687 181.338 68.2691 183.173C68.6695 185.009 69.5344 186.687 70.7671 188.021C71.9997 189.354 73.5513 190.29 75.2479 190.723C76.9446 191.156 78.7192 191.07 80.3729 190.473L100.346 183.27C108.528 187.978 117.594 190.608 126.855 190.959C136.116 191.311 145.33 189.375 153.796 185.299C162.263 181.224 169.76 175.114 175.718 167.436C181.676 159.757 185.94 150.711 188.184 140.984C190.428 131.257 190.595 121.105 188.671 111.298C186.747 101.49 182.783 92.2864 177.08 84.3841C171.377 76.4817 164.085 70.0888 155.758 65.6905C147.43 61.2922 138.286 59.0041 129.019 59ZM129.019 180.846C119.944 180.853 111.029 178.267 103.174 173.351C102.599 172.991 101.959 172.766 101.298 172.693C100.637 172.619 99.9683 172.699 99.3375 172.926L77.3988 180.846L84.7137 157.112C84.9245 156.43 84.999 155.707 84.9323 154.991C84.8656 154.276 84.6591 153.584 84.3265 152.961C78.6364 142.318 76.3518 129.941 77.8272 117.75C79.3026 105.559 84.4555 94.2352 92.4866 85.5358C100.518 76.8363 110.978 71.2473 122.245 69.6357C133.511 68.0241 144.955 70.48 154.8 76.6225C164.644 82.765 172.341 92.2507 176.694 103.608C181.047 114.965 181.814 127.56 178.876 139.437C175.938 151.314 169.46 161.81 160.445 169.298C151.43 176.785 140.384 180.844 129.019 180.846Z" fill="black"/>
</svg>
