<svg width="259" height="264" viewBox="0 0 259 264" fill="none" xmlns="http://www.w3.org/2000/svg">
<ellipse cx="129.5" cy="132" rx="129.5" ry="132" fill="#D9D9D9"/>
<path d="M133.5 65C120.941 65 108.664 68.9295 98.2213 76.2915C87.7788 83.6536 79.6398 94.1176 74.8337 106.36C70.0275 118.603 68.77 132.074 71.2202 145.071C73.6703 158.068 79.7181 170.006 88.5987 179.376C97.4794 188.746 108.794 195.127 121.112 197.713C133.43 200.298 146.197 198.971 157.8 193.9C169.404 188.829 179.321 180.241 186.298 169.223C193.276 158.205 197 145.251 197 132C196.982 114.236 190.286 97.2054 178.382 84.6446C166.477 72.0837 150.336 65.0188 133.5 65ZM138.385 188.454V147.462H153.038C154.334 147.462 155.576 146.919 156.492 145.952C157.408 144.985 157.923 143.675 157.923 142.308C157.923 140.941 157.408 139.63 156.492 138.663C155.576 137.697 154.334 137.154 153.038 137.154H138.385V121.692C138.385 118.959 139.414 116.337 141.246 114.404C143.078 112.471 145.563 111.385 148.154 111.385H157.923C159.219 111.385 160.461 110.842 161.377 109.875C162.293 108.909 162.808 107.598 162.808 106.231C162.808 104.864 162.293 103.553 161.377 102.586C160.461 101.62 159.219 101.077 157.923 101.077H148.154C142.972 101.077 138.002 103.249 134.338 107.115C130.674 110.981 128.615 116.225 128.615 121.692V137.154H113.962C112.666 137.154 111.424 137.697 110.508 138.663C109.592 139.63 109.077 140.941 109.077 142.308C109.077 143.675 109.592 144.985 110.508 145.952C111.424 146.919 112.666 147.462 113.962 147.462H128.615V188.454C114.846 187.128 102.09 180.251 93.0031 169.256C83.9158 158.26 79.1958 143.991 79.8249 129.417C80.4541 114.843 86.3839 101.086 96.3811 91.007C106.378 80.9283 119.673 75.3041 133.5 75.3041C147.327 75.3041 160.622 80.9283 170.619 91.007C180.616 101.086 186.546 114.843 187.175 129.417C187.804 143.991 183.084 158.26 173.997 169.256C164.91 180.251 152.154 187.128 138.385 188.454Z" fill="black"/>
</svg>
