<svg width="103" height="126" viewBox="0 0 103 126" fill="none" xmlns="http://www.w3.org/2000/svg">
<path d="M51.5 33.9231C46.7989 33.9231 42.2034 35.6284 38.2945 38.8234C34.3857 42.0184 31.3391 46.5596 29.5401 51.8727C27.7411 57.1859 27.2703 63.0323 28.1875 68.6726C29.1046 74.313 31.3684 79.494 34.6926 83.5605C38.0168 87.627 42.2521 90.3963 46.8629 91.5182C51.4736 92.6402 56.2528 92.0643 60.5961 89.8636C64.9394 87.6628 68.6516 83.936 71.2634 79.1543C73.8752 74.3726 75.2692 68.7509 75.2692 63C75.2627 55.2908 72.7563 47.8996 68.3001 42.4484C63.844 36.9971 57.802 33.9311 51.5 33.9231ZM51.5 82.3846C48.3659 82.3846 45.3022 81.2477 42.6964 79.1177C40.0905 76.9877 38.0594 73.9602 36.8601 70.4182C35.6607 66.8761 35.3469 62.9785 35.9583 59.2182C36.5698 55.458 38.079 52.004 40.2951 49.293C42.5112 46.582 45.3347 44.7358 48.4086 43.9879C51.4824 43.2399 54.6686 43.6238 57.5641 45.0909C60.4596 46.5581 62.9344 49.0427 64.6756 52.2305C66.4168 55.4183 67.3462 59.1661 67.3462 63C67.3462 68.1411 65.6767 73.0717 62.7049 76.707C59.7332 80.3423 55.7027 82.3846 51.5 82.3846ZM75.2692 0H27.7308C20.3785 0.00962098 13.3297 3.58674 8.13084 9.94647C2.93202 16.3062 0.00786477 24.9291 0 33.9231V92.0769C0.00786477 101.071 2.93202 109.694 8.13084 116.054C13.3297 122.413 20.3785 125.99 27.7308 126H75.2692C82.6215 125.99 89.6703 122.413 94.8692 116.054C100.068 109.694 102.992 101.071 103 92.0769V33.9231C102.992 24.9291 100.068 16.3062 94.8692 9.94647C89.6703 3.58674 82.6215 0.00962098 75.2692 0ZM95.0769 92.0769C95.0769 98.5033 92.9901 104.667 89.2754 109.211C85.5607 113.755 80.5226 116.308 75.2692 116.308H27.7308C22.4774 116.308 17.4393 113.755 13.7246 109.211C10.01 104.667 7.92308 98.5033 7.92308 92.0769V33.9231C7.92308 27.4967 10.01 21.3335 13.7246 16.7893C17.4393 12.2452 22.4774 9.69231 27.7308 9.69231H75.2692C80.5226 9.69231 85.5607 12.2452 89.2754 16.7893C92.9901 21.3335 95.0769 27.4967 95.0769 33.9231V92.0769ZM83.1923 31.5C83.1923 32.9377 82.8438 34.3431 82.1908 35.5386C81.5379 36.734 80.6098 37.6657 79.524 38.2159C78.4382 38.7661 77.2434 38.91 76.0907 38.6296C74.938 38.3491 73.8792 37.6567 73.0482 36.6401C72.2171 35.6235 71.6512 34.3283 71.4219 32.9182C71.1926 31.5081 71.3103 30.0465 71.76 28.7182C72.2098 27.3899 72.9714 26.2546 73.9486 25.4559C74.9258 24.6571 76.0747 24.2308 77.25 24.2308C78.826 24.2308 80.3374 24.9966 81.4518 26.3599C82.5662 27.7231 83.1923 29.5721 83.1923 31.5Z" fill="black"/>
</svg>
