<svg width="38" height="22" viewBox="0 0 38 22" fill="none" xmlns="http://www.w3.org/2000/svg">
<path d="M37.3205 10.951C37.2671 10.8476 35.9759 8.38879 33.1054 5.92471C29.2806 2.64145 24.4496 0.90625 19.1324 0.90625C13.8151 0.90625 8.98418 2.64145 5.15936 5.92471C2.28884 8.38879 0.991541 10.8516 0.944283 10.951C0.874941 11.0849 0.839111 11.2298 0.839111 11.3763C0.839111 11.5228 0.874941 11.6677 0.944283 11.8016C0.997639 11.905 2.28884 14.3625 5.15936 16.8266C8.98418 20.1086 13.8151 21.8438 19.1324 21.8438C24.4496 21.8438 29.2806 20.1086 33.1054 16.8266C35.9759 14.3625 37.2671 11.905 37.3205 11.8016C37.3898 11.6677 37.4257 11.5228 37.4257 11.3763C37.4257 11.2298 37.3898 11.0849 37.3205 10.951ZM19.1324 19.75C14.4402 19.75 10.3409 18.2857 6.94753 15.3989C5.55518 14.2103 4.3706 12.855 3.43065 11.375C4.37034 9.8949 5.55495 8.53951 6.94753 7.35107C10.3409 4.46432 14.4402 3 19.1324 3C23.8246 3 27.9238 4.46432 31.3172 7.35107C32.7123 8.53922 33.8995 9.89461 34.8418 11.375C33.7426 13.1364 28.9544 19.75 19.1324 19.75ZM19.1324 5.09375C17.6852 5.09375 16.2704 5.46214 15.0671 6.15233C13.8638 6.84252 12.9259 7.82352 12.3721 8.97127C11.8182 10.119 11.6733 11.382 11.9557 12.6004C12.238 13.8189 12.9349 14.9381 13.9583 15.8165C14.9816 16.695 16.2854 17.2932 17.7048 17.5356C19.1243 17.7779 20.5955 17.6535 21.9326 17.1781C23.2697 16.7027 24.4125 15.8976 25.2165 14.8647C26.0205 13.8317 26.4497 12.6173 26.4497 11.375C26.4477 9.70964 25.6761 8.11299 24.3043 6.9354C22.9325 5.75781 21.0724 5.09548 19.1324 5.09375ZM19.1324 15.5625C18.1676 15.5625 17.2244 15.3169 16.4222 14.8568C15.62 14.3967 14.9947 13.7427 14.6255 12.9775C14.2563 12.2123 14.1597 11.3704 14.3479 10.5581C14.5361 9.74576 15.0007 8.99962 15.683 8.41399C16.3652 7.82836 17.2344 7.42954 18.1807 7.26796C19.127 7.10639 20.1078 7.18931 20.9992 7.50625C21.8906 7.8232 22.6524 8.35992 23.1885 9.04855C23.7245 9.73718 24.0106 10.5468 24.0106 11.375C24.0106 12.4856 23.4966 13.5507 22.5818 14.336C21.667 15.1213 20.4262 15.5625 19.1324 15.5625Z" fill="black"/>
</svg>
