<svg width="40" height="34" viewBox="0 0 40 34" fill="none" xmlns="http://www.w3.org/2000/svg">
<g clip-path="url(#clip0_62_62)">
<path d="M7.59739 9.16464C7.49029 9.06101 7.36029 8.97665 7.21493 8.91647C7.06958 8.85628 6.91175 8.82145 6.7506 8.81401C6.58945 8.80657 6.42818 8.82666 6.27614 8.87311C6.1241 8.91957 5.98431 8.99146 5.86487 9.08463C5.74544 9.1778 5.64874 9.29039 5.58037 9.41588C5.512 9.54137 5.47333 9.67726 5.46659 9.81567C5.45986 9.95409 5.48519 10.0923 5.54112 10.2222C5.59706 10.3522 5.68248 10.4713 5.79245 10.5727L8.72547 13.343C3.1887 16.2598 0.807526 20.7562 0.70234 20.9603C0.632998 21.0942 0.597168 21.2391 0.597168 21.3856C0.597168 21.5321 0.632998 21.677 0.70234 21.8109C0.755695 21.9143 2.0469 24.3718 4.91742 26.8359C8.74224 30.1178 13.5732 31.853 18.8904 31.853C21.6232 31.8664 24.3283 31.3834 26.8282 30.4358L30.182 33.6039C30.2891 33.7076 30.4191 33.7919 30.5644 33.8521C30.7098 33.9123 30.8676 33.9471 31.0288 33.9546C31.1899 33.962 31.3512 33.9419 31.5032 33.8955C31.6553 33.849 31.7951 33.7771 31.9145 33.6839C32.0339 33.5908 32.1306 33.4782 32.199 33.3527C32.2674 33.2272 32.306 33.0913 32.3128 32.9529C32.3195 32.8145 32.2942 32.6763 32.2382 32.5464C32.1823 32.4164 32.0969 32.2973 31.9869 32.1959L7.59739 9.16464ZM14.8126 19.089L21.1649 25.0889C20.2083 25.5209 19.1117 25.6679 18.0472 25.5069C16.9827 25.3459 16.0106 24.886 15.2836 24.1993C14.5567 23.5127 14.1159 22.6382 14.0307 21.7133C13.9454 20.7883 14.2204 19.8653 14.8126 19.089ZM18.8904 29.7593C14.1982 29.7593 10.099 28.295 6.70559 25.4082C5.31273 24.22 4.12809 22.8646 3.1887 21.3843C3.90367 20.234 6.18575 17.0149 10.4069 14.9225L13.1509 17.5069C12.0886 18.6749 11.5415 20.1276 11.6063 21.6083C11.671 23.089 12.3436 24.5024 13.505 25.5986C14.6663 26.6949 16.2418 27.4034 17.9529 27.5989C19.664 27.7944 21.4005 27.4643 22.8555 26.6671L25.101 28.787C23.1192 29.4397 21.013 29.7694 18.8904 29.7593ZM19.8051 17.2714C19.4873 17.2193 19.2066 17.061 19.0248 16.8313C18.843 16.6016 18.7749 16.3193 18.8356 16.0465C18.8962 15.7737 19.0806 15.5328 19.3482 15.3767C19.6158 15.2206 19.9447 15.1622 20.2624 15.2143C21.8168 15.4729 23.232 16.156 24.2972 17.1616C25.3623 18.1671 26.0202 19.4413 26.1727 20.7941C26.2028 21.0705 26.1038 21.3459 25.8974 21.5597C25.6909 21.7734 25.3941 21.908 25.0721 21.9339C25.034 21.9358 24.9958 21.9358 24.9577 21.9339C24.6529 21.935 24.3586 21.8381 24.1329 21.6623C23.9072 21.4864 23.7664 21.2444 23.7382 20.9839C23.6355 20.0841 23.1973 19.2367 22.4887 18.5679C21.7801 17.899 20.8389 17.4443 19.8051 17.2714ZM37.074 21.8109C37.0099 21.9339 35.4657 24.8691 31.9884 27.5425C31.8696 27.6368 31.7301 27.7098 31.5781 27.7573C31.4261 27.8049 31.2646 27.826 31.103 27.8194C30.9414 27.8128 30.7829 27.7787 30.6368 27.7191C30.4907 27.6594 30.3599 27.5754 30.252 27.4719C30.1441 27.3685 30.0613 27.2476 30.0083 27.1164C29.9554 26.9851 29.9334 26.8462 29.9436 26.7076C29.9538 26.569 29.9961 26.4335 30.0679 26.309C30.1397 26.1846 30.2396 26.0737 30.3619 25.9827C32.0678 24.6671 33.5008 23.1121 34.5998 21.3843C33.6583 19.9027 32.4711 18.5463 31.0753 17.3577C27.6819 14.4736 23.5827 13.0093 18.8904 13.0093C17.9018 13.0083 16.9147 13.077 15.9391 13.2147C15.7805 13.2388 15.6179 13.2357 15.4606 13.2055C15.3034 13.1753 15.1547 13.1187 15.0231 13.0389C14.8915 12.9591 14.7797 12.8578 14.694 12.7406C14.6083 12.6235 14.5505 12.493 14.5239 12.3566C14.4973 12.2202 14.5025 12.0806 14.5391 11.946C14.5757 11.8113 14.643 11.6842 14.7372 11.572C14.8314 11.4597 14.9505 11.3647 15.0877 11.2922C15.225 11.2197 15.3775 11.1713 15.5367 11.1498C16.6452 10.9927 17.7669 10.9143 18.8904 10.9155C24.2077 10.9155 29.0386 12.6507 32.8635 15.934C35.734 18.3981 37.0252 20.8569 37.0785 20.9603C37.1479 21.0942 37.1837 21.2391 37.1837 21.3856C37.1837 21.5321 37.1479 21.677 37.0785 21.8109H37.074Z" fill="black"/>
</g>
<defs>
<clipPath id="clip0_62_62">
<rect width="39.0257" height="33.5" fill="white" transform="translate(0.597168 0.4375)"/>
</clipPath>
</defs>
</svg>
