<svg width="73" height="64" viewBox="0 0 73 64" fill="none" xmlns="http://www.w3.org/2000/svg">
<path d="M36.4597 0.546875C29.3442 0.546875 22.3884 2.38882 16.4721 5.83978C10.5557 9.29074 5.9445 14.1957 3.2215 19.9345C0.498498 25.6732 -0.213962 31.988 1.17421 38.0802C2.56238 44.1724 5.98884 49.7684 11.0203 54.1607C16.0517 58.5529 22.4622 61.5441 29.441 62.7559C36.4198 63.9677 43.6535 63.3458 50.2274 60.9687C56.8013 58.5916 62.4202 54.5662 66.3733 49.4015C70.3265 44.2368 72.4365 38.1647 72.4365 31.9531C72.4264 23.6264 68.6328 15.6432 61.888 9.75526C55.1433 3.86735 45.9983 0.555668 36.4597 0.546875ZM17.8071 52.9409C19.8092 50.2076 22.5672 47.9583 25.8269 46.4002C29.0867 44.8421 32.7433 44.0254 36.4597 44.0254C40.1761 44.0254 43.8328 44.8421 47.0925 46.4002C50.3523 47.9583 53.1103 50.2076 55.1123 52.9409C49.7792 56.5617 43.2158 58.5274 36.4597 58.5274C29.7036 58.5274 23.1402 56.5617 17.8071 52.9409ZM25.3899 29.5373C25.3899 27.626 26.0392 25.7577 27.2555 24.1685C28.4719 22.5794 30.2008 21.3408 32.2235 20.6094C34.2462 19.878 36.472 19.6866 38.6193 20.0595C40.7667 20.4323 42.7391 21.3527 44.2872 22.7042C45.8354 24.0556 46.8897 25.7775 47.3168 27.652C47.7439 29.5265 47.5247 31.4695 46.6869 33.2353C45.849 35.0011 44.4302 36.5103 42.6098 37.5721C40.7893 38.634 38.6491 39.2007 36.4597 39.2007C33.5238 39.2007 30.7082 38.1826 28.6322 36.3703C26.5562 34.5581 25.3899 32.1002 25.3899 29.5373ZM59.2081 49.592C56.1216 45.6875 51.7816 42.6669 46.7339 40.9099C49.4453 39.0456 51.4239 36.4901 52.3944 33.5986C53.365 30.7072 53.2792 27.6236 52.1491 24.7766C51.019 21.9297 48.9007 19.4609 46.0888 17.7137C43.2769 15.9664 39.9112 15.0275 36.4597 15.0275C33.0082 15.0275 29.6425 15.9664 26.8306 17.7137C24.0187 19.4609 21.9004 21.9297 20.7703 24.7766C19.6402 27.6236 19.5545 30.7072 20.525 33.5986C21.4955 36.4901 23.4741 39.0456 26.1856 40.9099C21.1378 42.6669 16.7978 45.6875 13.7113 49.592C9.81118 45.7633 7.26203 41.0321 6.37082 35.968C5.47961 30.9039 6.28434 25.7229 8.68812 21.0488C11.0919 16.3747 14.9922 12.4069 19.9194 9.62309C24.8466 6.83928 30.5906 5.35821 36.4597 5.35821C42.3288 5.35821 48.0728 6.83928 53 9.62309C57.9272 12.4069 61.8276 16.3747 64.2313 21.0488C66.6351 25.7229 67.4398 30.9039 66.5486 35.968C65.6574 41.0321 63.1083 45.7633 59.2081 49.592Z" fill="#FEF1F1"/>
</svg>
